<?xml version="1.0" standalone="no"?>
<!DOCTYPE svg PUBLIC "-//W3C//DTD SVG 20010904//EN"
 "http://www.w3.org/TR/2001/REC-SVG-20010904/DTD/svg10.dtd">
<svg version="1.0" xmlns="http://www.w3.org/2000/svg"
 width="1279.000000pt" height="1280.000000pt" viewBox="0 0 1279.000000 1280.000000"
 preserveAspectRatio="xMidYMid meet">
<g transform="translate(0.000000,1280.000000) scale(0.100000,-0.100000)"
fill="#000000" stroke="none">
<path d="M4050 12099 c-1096 -92 -2048 -629 -2686 -1514 -563 -782 -789 -1798
-613 -2760 256 -1396 1324 -2529 2701 -2865 488 -119 996 -136 1499 -50 344
60 653 162 996 331 100 49 185 89 189 89 4 0 37 -22 74 -50 94 -70 213 -127
327 -157 127 -33 306 -37 431 -8 l84 18 290 -290 c290 -290 291 -291 299 -343
14 -88 37 -152 79 -222 22 -37 40 -70 40 -73 0 -3 -23 -31 -52 -61 l-52 -55
1687 -1687 1686 -1686 65 62 65 63 49 -35 c181 -130 388 -150 582 -54 115 56
192 133 249 248 94 192 74 405 -55 581 l-36 49 58 60 57 60 -191 197 c-169
176 -2004 2009 -2859 2858 l-323 320 -63 -63 c-34 -34 -68 -62 -76 -62 -7 0
-26 9 -42 21 -54 38 -158 79 -240 93 l-82 14 -229 229 c-126 125 -251 253
-278 283 l-48 56 20 69 c25 89 36 303 19 400 -24 136 -93 294 -175 399 -25 33
-46 63 -46 67 0 5 25 52 55 106 130 232 271 596 340 879 127 517 137 1074 31
1594 -196 960 -781 1806 -1616 2337 -645 410 -1466 615 -2210 552z m465 -289
c275 -18 478 -53 733 -126 547 -156 1042 -453 1454 -870 259 -263 433 -506
598 -835 185 -368 292 -737 341 -1169 18 -157 15 -537 -5 -705 -84 -690 -361
-1316 -802 -1809 -593 -664 -1334 -1046 -2199 -1136 -129 -14 -511 -14 -640 0
-1174 123 -2177 828 -2690 1893 -189 393 -292 803 -314 1253 -22 469 44 913
201 1334 440 1185 1507 2017 2763 2155 231 25 354 28 560 15z"/>
<path d="M3980 11680 c-601 -54 -1235 -331 -1740 -760 -434 -368 -790 -888
-950 -1385 -37 -116 -37 -129 -5 -81 14 20 25 40 25 45 0 11 125 183 195 270
33 40 71 88 85 105 25 31 74 80 187 186 81 78 239 201 298 235 28 15 69 43 92
62 23 18 98 62 168 98 69 35 137 73 151 84 15 12 35 21 45 21 10 0 21 5 24 10
3 6 14 10 25 10 10 0 44 15 77 33 64 35 87 45 212 88 47 16 92 35 100 43 9 8
45 24 81 35 36 12 73 26 82 31 10 6 25 10 33 10 9 0 33 9 53 19 20 11 57 25
82 32 25 7 54 17 65 24 11 6 45 20 75 30 30 9 75 26 100 36 25 10 56 21 70 25
28 7 82 29 120 49 14 7 43 16 65 20 21 3 52 13 67 21 15 8 36 14 47 14 11 0
45 11 75 25 30 14 68 25 84 25 16 0 60 16 98 35 37 19 79 35 93 35 26 0 76 14
129 36 18 8 52 14 75 14 23 0 54 6 69 14 14 8 55 17 90 21 34 4 74 12 88 17
14 6 41 11 60 13 19 1 69 7 110 13 168 24 513 31 580 12 19 -5 55 -10 80 -10
46 0 205 -30 250 -48 14 -5 39 -12 55 -16 28 -6 28 -5 -10 19 -71 45 -248 132
-362 179 -262 108 -504 169 -788 201 -139 16 -551 18 -705 5z"/>
</g>
</svg>
